<svg xmlns="http://www.w3.org/2000/svg" width="52.78" height="52.78" viewBox="0 0 52.78 52.78">
  <path id="Icon_ionic-ios-arrow-dropdown-circle" data-name="Icon ionic-ios-arrow-dropdown-circle" d="M0,26.39A26.39,26.39,0,1,1,26.39,52.78,26.386,26.386,0,0,1,0,26.39ZM36.679,31.9a2.458,2.458,0,0,0,3.464,0,2.419,2.419,0,0,0,.71-1.726,2.461,2.461,0,0,0-.723-1.738L28.166,16.507a2.446,2.446,0,0,0-3.375.076l-12.142,12.1a2.449,2.449,0,0,0,3.464,3.464L26.4,21.759Z" transform="translate(52.78) rotate(90)" fill="#fff"/>
</svg>
