<svg xmlns="http://www.w3.org/2000/svg" width="52.78" height="52.78" viewBox="0 0 52.78 52.78">
  <path id="Icon_ionic-ios-arrow-dropdown-circle" data-name="Icon ionic-ios-arrow-dropdown-circle" d="M3.375,29.765a26.39,26.39,0,1,0,26.39-26.39A26.386,26.386,0,0,0,3.375,29.765Zm36.679-5.506a2.458,2.458,0,0,1,3.464,0,2.419,2.419,0,0,1,.71,1.725,2.461,2.461,0,0,1-.723,1.738L31.541,39.648a2.446,2.446,0,0,1-3.375-.076l-12.142-12.1A2.449,2.449,0,0,1,19.488,24L29.778,34.4Z" transform="translate(-3.375 -3.375)" fill="#fff"/>
</svg>
