<svg id="Icon_ionic-ios-arrow-dropright" data-name="Icon ionic-ios-arrow-dropright" xmlns="http://www.w3.org/2000/svg" width="24.383" height="24.383" viewBox="0 0 24.383 24.383">
  <path id="Path_6337" data-name="Path 6337" d="M14.748,10.312a1.136,1.136,0,0,1,1.6,0l5.592,5.609a1.13,1.13,0,0,1,.035,1.559l-5.51,5.527a1.129,1.129,0,1,1-1.6-1.594l4.683-4.754-4.8-4.754A1.118,1.118,0,0,1,14.748,10.312Z" transform="translate(-5.212 -4.474)" fill="#33286f"/>
  <path id="Path_6338" data-name="Path 6338" d="M3.375,15.567A12.192,12.192,0,1,0,15.567,3.375,12.19,12.19,0,0,0,3.375,15.567Zm1.876,0A10.312,10.312,0,0,1,22.858,8.275,10.312,10.312,0,1,1,8.275,22.858,10.227,10.227,0,0,1,5.251,15.567Z" transform="translate(-3.375 -3.375)" fill="#33286f"/>
</svg>
