<svg xmlns="http://www.w3.org/2000/svg" width="29.759" height="29.759" viewBox="0 0 29.759 29.759">
  <path id="Icon_awesome-facebook-square" data-name="Icon awesome-facebook-square" d="M26.57,2.25H3.188A3.188,3.188,0,0,0,0,5.438V28.82a3.188,3.188,0,0,0,3.188,3.188h9.117V21.891H8.121V17.129h4.185V13.5c0-4.128,2.458-6.409,6.222-6.409a25.352,25.352,0,0,1,3.688.322v4.052H20.138a2.381,2.381,0,0,0-2.685,2.573v3.092h4.569l-.731,4.762H17.453V32.009H26.57a3.188,3.188,0,0,0,3.188-3.188V5.438A3.188,3.188,0,0,0,26.57,2.25Z" transform="translate(0 -2.25)" fill="#33286f"/>
</svg>
