<svg id="Group_115" data-name="Group 115" xmlns="http://www.w3.org/2000/svg" width="85.828" height="85.427" viewBox="0 0 85.828 85.427">
  <path id="Path_22" data-name="Path 22" d="M104.419,0A26.081,26.081,0,0,0,78.35,26.092v7.632A46.076,46.076,0,0,0,100.592,40.6a46.1,46.1,0,0,0,29.266-8.709A26.092,26.092,0,0,0,104.419,0ZM104.3,36.325a6.749,6.749,0,1,1,6.749-6.749A6.749,6.749,0,0,1,104.3,36.325Z" transform="translate(-78.35)" fill="#ed2a58"/>
  <path id="Path_23" data-name="Path 23" d="M99.377,47.23a74.483,74.483,0,0,1-9.866,32.784H79.725a1.375,1.375,0,0,1-1.375-1.375V37.1A46.157,46.157,0,0,1,99.377,47.23Z" transform="translate(-78.35 5.413)" fill="#ed2a58"/>
  <path id="Path_24" data-name="Path 24" d="M133.205,29.09h-.1A75.286,75.286,0,0,1,111.88,46.175a46.443,46.443,0,0,1,2.429,35.007h18.93a26.046,26.046,0,0,0,0-52.093Z" transform="translate(-73.458 4.244)" fill="#ed2a58"/>
  <path id="Path_25" data-name="Path 25" d="M113.73,77.366H91.66A74.415,74.415,0,0,0,106.706,55.25,46.053,46.053,0,0,1,113.73,77.366Z" transform="translate(-76.408 8.061)" fill="#ed2a58"/>
</svg>
