<svg id="Group_115" data-name="Group 115" xmlns="http://www.w3.org/2000/svg" width="168.567" height="167.78" viewBox="0 0 168.567 167.78">
  <path id="Path_22" data-name="Path 22" d="M129.55,0a51.223,51.223,0,0,0-51.2,51.245V66.234a90.5,90.5,0,0,0,43.683,13.5,90.541,90.541,0,0,0,57.479-17.1A51.245,51.245,0,0,0,129.55,0Zm-.225,71.343a13.256,13.256,0,1,1,13.256-13.256A13.256,13.256,0,0,1,129.325,71.343Z" transform="translate(-78.35)" fill="#ed2a58"/>
  <path id="Path_23" data-name="Path 23" d="M119.648,57a146.287,146.287,0,0,1-19.377,64.389H81.051a2.7,2.7,0,0,1-2.7-2.7V37.1a90.653,90.653,0,0,1,41.3,19.9Z" transform="translate(-78.35 46.396)" fill="#ed2a58"/>
  <path id="Path_24" data-name="Path 24" d="M153.763,29.09h-.2a147.862,147.862,0,0,1-41.68,33.556,91.215,91.215,0,0,1,4.771,68.755h37.179a51.155,51.155,0,0,0,0-102.311Z" transform="translate(-36.419 36.379)" fill="#ed2a58"/>
  <path id="Path_25" data-name="Path 25" d="M135.006,98.686H91.66A146.152,146.152,0,0,0,121.21,55.25,90.449,90.449,0,0,1,135.006,98.686Z" transform="translate(-61.706 69.093)" fill="#ed2a58"/>
</svg>
