<svg id="Component_8_12" data-name="Component 8 – 12" xmlns="http://www.w3.org/2000/svg" width="204" height="234.426" viewBox="0 0 204 234.426">
  <path id="Path_22" data-name="Path 22" d="M131.058,0A52.731,52.731,0,0,0,78.35,52.754v15.43a93.159,93.159,0,0,0,44.97,13.9,93.206,93.206,0,0,0,59.172-17.608A52.754,52.754,0,0,0,131.058,0Zm-.232,73.443A13.646,13.646,0,1,1,144.472,59.8,13.646,13.646,0,0,1,130.826,73.443Z" transform="translate(-74.475)" fill="#faf4f2"/>
  <path id="Path_23" data-name="Path 23" d="M120.864,57.581a150.594,150.594,0,0,1-19.948,66.284H81.13a2.78,2.78,0,0,1-2.78-2.78V37.1A93.322,93.322,0,0,1,120.864,57.581Z" transform="translate(-74.475 48.854)" fill="#faf4f2"/>
  <path id="Path_24" data-name="Path 24" d="M155,29.09h-.208A152.216,152.216,0,0,1,111.88,63.634a93.9,93.9,0,0,1,4.912,70.779h38.274a52.661,52.661,0,0,0,0-105.323Z" transform="translate(-30.322 38.306)" fill="#faf4f2"/>
  <path id="Path_25" data-name="Path 25" d="M136.282,99.965H91.66A150.455,150.455,0,0,0,122.08,55.25,93.113,93.113,0,0,1,136.282,99.965Z" transform="translate(-56.948 72.754)" fill="#faf4f2"/>
  <text id="Experiences" transform="translate(0 225.426)" fill="#faf4f2" font-size="37" font-family="Helvetica"><tspan x="0" y="0">Experiences</tspan></text>
</svg>
