<svg xmlns="http://www.w3.org/2000/svg" width="41.961" height="32.637" viewBox="0 0 41.961 32.637">
  <path id="Icon_awesome-images" data-name="Icon awesome-images" d="M34.968,30.224V31.39a3.5,3.5,0,0,1-3.5,3.5H3.5A3.5,3.5,0,0,1,0,31.39V12.74a3.5,3.5,0,0,1,3.5-3.5H4.662V24.4a5.835,5.835,0,0,0,5.828,5.828ZM41.961,24.4V5.747a3.5,3.5,0,0,0-3.5-3.5H10.49a3.5,3.5,0,0,0-3.5,3.5V24.4a3.5,3.5,0,0,0,3.5,3.5H38.465A3.5,3.5,0,0,0,41.961,24.4ZM18.649,9.244a3.5,3.5,0,1,1-3.5-3.5A3.5,3.5,0,0,1,18.649,9.244Zm-6.994,10.49L15.7,15.69a.874.874,0,0,1,1.236,0l2.879,2.879L29.687,8.7a.874.874,0,0,1,1.236,0L37.3,15.072v8.159H11.656Z" transform="translate(0 -2.25)" fill="#ed2a58"/>
</svg>
