<svg xmlns="http://www.w3.org/2000/svg" width="47.044" height="31.363" viewBox="0 0 47.044 31.363">
  <path id="Icon_awesome-ticket-alt" data-name="Icon awesome-ticket-alt" d="M10.454,12.341H36.59V28.022H10.454Zm32.67,7.841a3.92,3.92,0,0,0,3.92,3.92v7.841a3.92,3.92,0,0,1-3.92,3.92H3.92A3.92,3.92,0,0,1,0,31.943V24.1a3.92,3.92,0,0,0,3.92-3.92A3.92,3.92,0,0,0,0,16.261V8.42A3.92,3.92,0,0,1,3.92,4.5h39.2a3.92,3.92,0,0,1,3.92,3.92v7.841A3.92,3.92,0,0,0,43.124,20.181ZM39.2,11.687a1.96,1.96,0,0,0-1.96-1.96H9.8a1.96,1.96,0,0,0-1.96,1.96V28.676a1.96,1.96,0,0,0,1.96,1.96H37.243a1.96,1.96,0,0,0,1.96-1.96Z" transform="translate(0 -4.5)" fill="#ed2a58"/>
</svg>
