<svg xmlns="http://www.w3.org/2000/svg" width="33.449" height="38.23" viewBox="0 0 33.449 38.23">
  <path id="Icon_awesome-ribbon" data-name="Icon awesome-ribbon" d="M.455,33.175a1.785,1.785,0,0,0,.336,2.666l5.137,2.083a1.8,1.8,0,0,0,2.337-.284l6.855-7.609L9.206,23.468.455,33.175Zm32.541,0S11.193,8.938,10.939,8.527a11.8,11.8,0,0,1,5.787-1.337,11.8,11.8,0,0,1,5.787,1.337c-.246.418-4.181,4.824-4.181,4.824L24.237,19.9l2.554-2.837a7.306,7.306,0,0,0,.851-8.624L24.379,2.949a4.234,4.234,0,0,0-1.254-1.344c-3.039-2.061-9.513-2.218-12.8,0A4.234,4.234,0,0,0,9.072,2.949L5.816,8.415a7.366,7.366,0,0,0,.859,8.662L25.2,37.633a1.8,1.8,0,0,0,2.337.284l5.137-2.083A1.774,1.774,0,0,0,33,33.175Z" transform="translate(-0.004 0)" fill="#fff"/>
</svg>
