<svg xmlns="http://www.w3.org/2000/svg" width="32.7" height="32.699" viewBox="0 0 32.7 32.699">
  <path id="Icon_awesome-linkedin-in" data-name="Icon awesome-linkedin-in" d="M7.319,32.7H.54V10.868H7.319ZM3.926,7.89A3.945,3.945,0,1,1,7.852,3.927,3.959,3.959,0,0,1,3.926,7.89ZM32.692,32.7H25.928V22.072c0-2.533-.051-5.781-3.525-5.781-3.525,0-4.065,2.752-4.065,5.6V32.7H11.566V10.868h6.5v2.978h.095a7.123,7.123,0,0,1,6.414-3.525c6.861,0,8.122,4.518,8.122,10.387V32.7Z" transform="translate(0 -0.001)" fill="#33286f"/>
</svg>
