<svg xmlns="http://www.w3.org/2000/svg" width="24.325" height="24.217" viewBox="0 0 24.325 24.217">
  <g id="Group_115" data-name="Group 115" transform="translate(0 0)">
    <path id="Path_51" data-name="Path 51" d="M978.919,1280.475a7.4,7.4,0,0,0-7.391,7.4v2.163a13.127,13.127,0,0,0,14.6-.512,7.4,7.4,0,0,0-7.21-9.048Zm-.04,10.3a1.914,1.914,0,1,1,1.915-1.914A1.914,1.914,0,0,1,978.879,1290.771Z" transform="translate(-971.528 -1280.475)" fill="#ed2a58"/>
    <path id="Path_52" data-name="Path 52" d="M977.489,1321.041a21.1,21.1,0,0,1-2.8,9.294h-2.774a.39.39,0,0,1-.39-.39V1318.17A13.087,13.087,0,0,1,977.489,1321.041Z" transform="translate(-971.528 -1306.118)" fill="#ed2a58"/>
    <path id="Path_53" data-name="Path 53" d="M1011.639,1310.029h-.028a21.343,21.343,0,0,1-6.018,4.845,13.165,13.165,0,0,1,.686,9.922h5.368a7.384,7.384,0,0,0-.007-14.767Z" transform="translate(-994.702 -1300.58)" fill="#ed2a58"/>
    <path id="Path_54" data-name="Path 54" d="M991.3,1342.88h-6.255a21.1,21.1,0,0,0,4.265-6.268A13.056,13.056,0,0,1,991.3,1342.88Z" transform="translate(-980.725 -1318.664)" fill="#ed2a58"/>
  </g>
</svg>
