<svg xmlns="http://www.w3.org/2000/svg" width="78.244" height="165.023" viewBox="0 0 78.244 165.023">
  <g id="Group_115" data-name="Group 115" transform="translate(-67.41 -70.659)">
    <g id="Group_5" data-name="Group 5" transform="translate(67.41 159.514)">
      <g id="Group_2" data-name="Group 2" transform="translate(0 32.957)">
        <path id="Path_1" data-name="Path 1" d="M71.626,482.53l-4.216-20.4h.915c1.5,7.359,3.661,17.61,3.845,19.359h.03c.269-2,2.979-14.064,4.087-19.359H77.35c1.094,5.2,3.813,17.753,4,19.344h.04c.366-2.376,3.078-13.942,4.255-19.344h.89l-4.64,20.4H80.771c-1.071-5.206-3.688-17.551-3.962-19.361h-.03c-.293,2.133-2.881,13.94-4.072,19.361Z" transform="translate(-67.41 -461.205)" fill="#fff"/>
        <path id="Path_2" data-name="Path 2" d="M136.188,465.974h.858v14.94h-.858Zm.029-6.2h.858v2.68h-.858Z" transform="translate(-114.624 -459.589)" fill="#fff"/>
        <path id="Path_3" data-name="Path 3" d="M146.194,470.258h2.232v-4.239h.844v4.239h2.857v.783H149.27v11.5c0,1.169.234,2.062,1.562,2.062a5.212,5.212,0,0,0,1.159-.129v.736a3.931,3.931,0,0,1-1.328.194c-1.35,0-2.237-.556-2.237-2.725V471.041h-2.232Z" transform="translate(-121.493 -463.874)" fill="#fff"/>
        <path id="Path_4" data-name="Path 4" d="M173.5,459.176v8.958a3.794,3.794,0,0,1,3.886-2.836c1.878,0,3.755.978,3.755,4.6v10.6h-.871V470.144c0-2.569-.884-4.015-3.04-4.015-2.684,0-3.73,2.243-3.73,5.432V480.5h-.868V459.176Z" transform="translate(-139.645 -459.176)" fill="#fff"/>
        <path id="Path_5" data-name="Path 5" d="M219.354,486.332c0,5.428-1.765,7.822-4.7,7.822-2.989,0-4.718-2.318-4.718-7.827,0-5.494,2.045-7.626,4.768-7.626C217.592,478.7,219.354,480.926,219.354,486.332Zm-8.533.013c0,4.9,1.48,7.006,3.815,7.006,2.568,0,3.829-2.365,3.829-7.025,0-4.6-1.308-6.823-3.839-6.823C212.42,479.5,210.821,481.342,210.821,486.345Z" transform="translate(-165.248 -472.579)" fill="#fff"/>
        <path id="Path_6" data-name="Path 6" d="M258.527,490.676c0,1.568,0,2.973.037,3.8h-.812c-.047-.47-.1-1.86-.082-2.771a3.659,3.659,0,0,1-3.815,3.023c-1.747,0-3.689-.726-3.689-4.586V479.539h.868v10.48c0,2.15.581,3.893,2.953,3.893,2.1,0,3.669-1.377,3.669-5.607v-8.766h.872Z" transform="translate(-192.866 -473.155)" fill="#fff"/>
        <path id="Path_7" data-name="Path 7" d="M283.473,470.258H285.7v-4.239h.844v4.239h2.857v.783h-2.857v11.5c0,1.169.234,2.062,1.562,2.062a5.214,5.214,0,0,0,1.159-.129v.736a3.932,3.932,0,0,1-1.328.194c-1.35,0-2.237-.556-2.237-2.725V471.041h-2.231Z" transform="translate(-215.731 -463.874)" fill="#fff"/>
      </g>
      <g id="Group_3" data-name="Group 3" transform="translate(0.098)">
        <path id="Path_8" data-name="Path 8" d="M67.722,354.061h8.767c4.836,0,8.544,2.762,8.544,8.175,0,5.448-3.436,8.405-8.983,8.405H72.22V382.25h-4.5Zm4.5,12.947h3.432c3.135,0,4.835-1.411,4.835-4.77,0-2.983-1.77-4.521-4.6-4.521H72.22Z" transform="translate(-67.722 -354.061)" fill="#fff"/>
        <path id="Path_9" data-name="Path 9" d="M135.027,354.061h4.493v24.383h11.02l-.511,3.807h-15Z" transform="translate(-113.925 -354.061)" fill="#fff"/>
        <path id="Path_10" data-name="Path 10" d="M197.043,374.566l-1.9,7.685h-4.471c.385-1.145,7.047-26.89,7.478-28.189h5.806l7.716,28.189h-4.734l-1.954-7.685Zm7.064-3.857c-1.559-6.128-2.642-10.245-3.129-12.745h-.09c-.5,2.795-1.63,7.289-2.992,12.745Z" transform="translate(-152.124 -354.061)" fill="#fff"/>
        <path id="Path_11" data-name="Path 11" d="M256.767,382.25V371.763a1.742,1.742,0,0,0-.2-.84l-7.849-16.862h5.043c1.874,4.467,4.433,10.407,5.42,13.125,1.381-3.5,3.714-8.895,5.459-13.125h4.727l-7.936,16.872a1.707,1.707,0,0,0-.173.836V382.25Z" transform="translate(-191.97 -354.061)" fill="#fff"/>
      </g>
      <g id="Group_4" data-name="Group 4" transform="translate(2.444 58.779)">
        <path id="Path_12" data-name="Path 12" d="M75.2,543.866h2.749c2.49,0,3.418,1.347,3.418,3.542v.772c0,2.309-.68,3.022-1.528,3.334.927.28,1.871,1.1,1.871,3.3v1.209c0,2.887-.954,4.3-3.743,4.3H75.2Zm2.72,7.025c1.484,0,1.934-.632,1.934-2.611v-.758c0-1.521-.563-2.305-2.022-2.305H76.742v5.675Zm-1.182,8.1h1.1c1.839,0,2.295-.892,2.295-2.987v-1.148c0-1.837-.678-2.629-2.256-2.629H76.742Z" transform="translate(-75.204 -543.135)" fill="#fff"/>
        <path id="Path_13" data-name="Path 13" d="M107.605,559.555v5.328c0,2.72-1.27,3.889-3.2,3.889s-3.133-1.139-3.133-3.81v-5.435c0-2.337,1.208-3.648,3.207-3.648C106.547,555.879,107.605,557.245,107.605,559.555Zm-4.741-.03v5.488c0,1.443.493,2.347,1.576,2.347,1,0,1.575-.679,1.575-2.365v-5.479c0-1.292-.443-2.226-1.568-2.226S102.865,558.1,102.865,559.525Z" transform="translate(-93.101 -551.382)" fill="#fff"/>
        <path id="Path_14" data-name="Path 14" d="M133.949,565.693c0,1.567,0,2.734.025,3.313h-1.5a12.755,12.755,0,0,1-.067-1.325,2.057,2.057,0,0,1-2.225,1.522c-.995,0-2.42-.363-2.42-3.178v-9.518h1.574v9.1c0,1.559.415,2.155,1.383,2.155.892,0,1.655-.533,1.655-3.094v-8.165h1.574Z" transform="translate(-111.284 -551.814)" fill="#fff"/>
        <path id="Path_15" data-name="Path 15" d="M154.954,559.87c0-2.5,0-3.164-.024-3.794h1.5a10.822,10.822,0,0,1,.067,1.276,2.23,2.23,0,0,1,2.287-1.473c1.333,0,2.44.748,2.44,3.03v9.666h-1.574v-9.354c0-1.229-.41-1.89-1.367-1.89-1.084,0-1.752.531-1.752,3.049v8.194h-1.574Z" transform="translate(-129.934 -551.382)" fill="#fff"/>
        <path id="Path_16" data-name="Path 16" d="M187.7,541.536v14.029c0,1.39,0,2.458.024,3.164h-1.5c-.033-.219-.067-.908-.067-1.239a2.12,2.12,0,0,1-2.172,1.436c-2.072,0-2.618-1.636-2.618-4.03v-5.175c0-2.218.885-3.688,2.8-3.688a2.063,2.063,0,0,1,1.957.95v-5.447Zm-4.741,8.278v5.107c0,1.692.42,2.553,1.464,2.553,1.373,0,1.7-1.328,1.7-3.12v-4.17c0-1.38-.139-2.7-1.647-2.7C183.4,547.485,182.956,548.386,182.956,549.814Z" transform="translate(-148.081 -541.536)" fill="#fff"/>
        <path id="Path_17" data-name="Path 17" d="M213.046,566.5c0,.868.016,1.728.049,2.071h-1.47a8.28,8.28,0,0,1-.125-1.038,1.989,1.989,0,0,1-2.04,1.236c-1.789,0-2.5-1.57-2.5-3.509v-.222c0-2.77,1.68-3.811,3.9-3.811h.6v-2.066c0-1.167-.209-1.921-1.24-1.921s-1.312.78-1.312,1.8v.362h-1.556v-.344c0-1.73.683-3.185,2.92-3.185,2.127,0,2.77,1.371,2.77,3.174Zm-1.548-3.994h-.654c-1.48,0-2.345.631-2.345,2.492v.213c0,1.17.352,2.132,1.376,2.132,1.222,0,1.624-1,1.624-2.912Z" transform="translate(-165.652 -551.382)" fill="#fff"/>
        <path id="Path_18" data-name="Path 18" d="M233.867,560.4c0-2,.009-3.187-.024-4.258h1.5c.024.348.058,1.059.058,1.936a2.7,2.7,0,0,1,2.606-2.1v1.945c-1.572.016-2.57,1.029-2.57,3.217v7.5h-1.574Z" transform="translate(-184.105 -551.451)" fill="#fff"/>
        <path id="Path_19" data-name="Path 19" d="M251.291,546.23h1.574v12.5h-1.574Zm.009-4.694h1.574v2.507H251.3Z" transform="translate(-196.083 -541.536)" fill="#fff"/>
        <path id="Path_20" data-name="Path 20" d="M264.262,562.615v2.093c0,1.307.254,2.7,1.552,2.7,1.23,0,1.471-.982,1.471-2.247v-.113h1.547v.1c0,1.48-.35,3.63-3.023,3.63-2.476,0-3.094-1.652-3.094-4.192v-4.785c0-1.938.692-3.916,3.132-3.916,2.351,0,3.018,1.785,3.018,3.923v2.813Zm3.074-1.306v-1.627c0-1.167-.169-2.435-1.5-2.435-1.268,0-1.561,1.069-1.561,2.451v1.612Z" transform="translate(-203.925 -551.382)" fill="#fff"/>
        <path id="Path_21" data-name="Path 21" d="M288.4,564.9v.544c0,1.314.543,1.957,1.458,1.957,1.012,0,1.409-.639,1.409-1.861,0-1.3-.387-1.882-1.79-2.814-1.664-1.1-2.431-1.975-2.431-3.7,0-1.784.837-3.153,2.851-3.153,2.18,0,2.8,1.432,2.8,3.217v.588H291.16v-.671c0-1.107-.312-1.766-1.288-1.766-.883,0-1.247.609-1.247,1.643s.317,1.49,1.592,2.347c1.756,1.162,2.646,2.027,2.646,4.09,0,2.236-.981,3.445-3.081,3.445-2.365,0-2.983-1.6-2.983-3.3V564.9Z" transform="translate(-220.458 -551.382)" fill="#fff"/>
      </g>
    </g>
    <g id="Group_7" data-name="Group 7" transform="translate(67.586 70.659)">
      <g id="Group_6" data-name="Group 6">
        <path id="Path_22" data-name="Path 22" d="M91.69,70.659A23.733,23.733,0,0,0,67.97,94.4v6.942A42.127,42.127,0,0,0,114.829,99.7,23.737,23.737,0,0,0,91.69,70.659ZM91.563,103.7a6.144,6.144,0,1,1,6.145-6.143A6.144,6.144,0,0,1,91.563,103.7Z" transform="translate(-67.97 -70.659)" fill="#fff"/>
        <path id="Path_23" data-name="Path 23" d="M87.1,203.242a67.724,67.724,0,0,1-8.978,29.828h-8.9a1.251,1.251,0,0,1-1.251-1.251v-37.79A42,42,0,0,1,87.1,203.242Z" transform="translate(-67.97 -155.349)" fill="#fff"/>
        <path id="Path_24" data-name="Path 24" d="M198.864,167.384h-.089a68.5,68.5,0,0,1-19.315,15.551,42.257,42.257,0,0,1,2.2,31.843h17.227a23.7,23.7,0,1,0-.022-47.395Z" transform="translate(-144.504 -137.058)" fill="#fff"/>
        <path id="Path_25" data-name="Path 25" d="M132.293,274.5H112.217a67.706,67.706,0,0,0,13.688-20.117A41.891,41.891,0,0,1,132.293,274.5Z" transform="translate(-98.344 -196.782)" fill="#fff"/>
      </g>
    </g>
  </g>
</svg>
