<svg xmlns="http://www.w3.org/2000/svg" width="21.37" height="18.995" viewBox="0 0 21.37 18.995">
  <path id="Icon_awesome-shopping-cart" data-name="Icon awesome-shopping-cart" d="M19.594,11.179l1.754-7.717a.89.89,0,0,0-.868-1.088H5.907L5.567.712A.89.89,0,0,0,4.694,0H.89A.89.89,0,0,0,0,.89v.594a.89.89,0,0,0,.89.89H3.483L6.089,15.116a2.078,2.078,0,1,0,2.487.318h7.778a2.077,2.077,0,1,0,2.36-.386l.2-.9a.89.89,0,0,0-.868-1.088H8.092l-.243-1.187H18.725A.89.89,0,0,0,19.594,11.179Z" fill="#faebec"/>
</svg>
